HIERARCHY
ROOT Hips
{
	OFFSET 0.00000 0.00000 0.00000
	CHANNELS 6 Xposition Yposition Zposition Zrotation Yrotation Xrotation 
	JOINT LHipJoint
	{
		OFFSET 0 0 0
		CHANNELS 3 Zrotation Yrotation Xrotation
		JOINT LeftHip
		{
			OFFSET 1.84395 -1.68683 0.74144
			CHANNELS 3 Zrotation Yrotation Xrotation
			JOINT LeftKnee
			{
				OFFSET 2.27037 -6.23779 0.00000
				CHANNELS 3 Zrotation Yrotation Xrotation
				JOINT LeftAnkle
				{
					OFFSET 2.56918 -7.05877 0.00000
					CHANNELS 3 Zrotation Yrotation Xrotation
					JOINT LeftToe
					{
						OFFSET 0.22276 -0.61202 1.71784
						CHANNELS 3 Zrotation Yrotation Xrotation
						End Site
						{
							OFFSET 0.00000 -0.00000 0.91613
						}
					}
				}
			}
		}
	}
	JOINT RHipJoint
	{
		OFFSET 0 0 0
		CHANNELS 3 Zrotation Yrotation Xrotation
		JOINT RightHip
		{
			OFFSET -1.76833 -1.68684 0.74144
			CHANNELS 3 Zrotation Yrotation Xrotation
			JOINT RightKnee
			{
				OFFSET -2.49360 -6.85110 0.00000
				CHANNELS 3 Zrotation Yrotation Xrotation
				JOINT RightAnkle
				{
					OFFSET -2.55538 -7.02085 0.00000
					CHANNELS 3 Zrotation Yrotation Xrotation
					JOINT RightToe
					{
						OFFSET -0.21516 -0.59115 1.68050
						CHANNELS 3 Zrotation Yrotation Xrotation
						End Site
						{
							OFFSET -0.00000 -0.00000 0.89604
						}
					}
				}
			}
		}
	}
	JOINT lowerback
	{
		OFFSET 0 0 0
		CHANNELS 3 Zrotation Yrotation Xrotation
		JOINT Chest
		{
			OFFSET 0.06382 1.72312 -0.19613
			CHANNELS 3 Zrotation Yrotation Xrotation
			JOINT Chest2
			{
				OFFSET -0.00055 1.73507 0.23859
				CHANNELS 3 Zrotation Yrotation Xrotation
				JOINT lowerneck
				{
					OFFSET 0 0 0
					CHANNELS 3 Zrotation Yrotation Xrotation
					JOINT Neck
					{
						OFFSET 0.03638 1.65562 0.09633
						CHANNELS 3 Zrotation Yrotation Xrotation
						JOINT Head
						{
							OFFSET 0.06388 1.62807 -0.32386
							CHANNELS 3 Zrotation Yrotation Xrotation
							End Site
							{
								OFFSET 0.00995 1.67644 -0.12021
							}
						}
					}
				}
				JOINT LeftCollar
				{
					OFFSET 0 0 0
					CHANNELS 3 Zrotation Yrotation Xrotation
					JOINT LeftShoulder
					{
						OFFSET 3.09648 1.42991 0.28122
CHANNELS 3 Zrotation Xrotation Yrotation
						JOINT LeftElbow
						{
OFFSET 0 -5.118780 -0.000000
CHANNELS 3 Zrotation Xrotation Yrotation
							JOINT LeftWrist
							{
OFFSET 0 -3.599710 0.000000
CHANNELS 3 Zrotation Xrotation Yrotation
								JOINT lhand
								{
									OFFSET 0 0 0
CHANNELS 3 Zrotation Xrotation Yrotation
									JOINT LFingers
									{
OFFSET 0 -0.628770 0.000000
CHANNELS 3 Zrotation Xrotation Yrotation
										End Site
										{
OFFSET 0 -0.506930 0.000000
										}
									}
								}
								JOINT LThumb
								{
OFFSET 0 0.000000 0.000000
CHANNELS 3 Zrotation Xrotation Yrotation
									End Site
									{
OFFSET 0 -0.514670 0.514670
									}
								}
							}
						}
					}
				}
				JOINT RightCollar
				{
					OFFSET 0 0 0
					CHANNELS 3 Zrotation Yrotation Xrotation
					JOINT RightShoulder
					{
						OFFSET -3.33565 1.14597 0.05047
CHANNELS 3 Zrotation Xrotation Yrotation
						JOINT RightElbow
						{
OFFSET 0 -5.490200 0.000000
CHANNELS 3 Zrotation Xrotation Yrotation
							JOINT RightWrist
							{
OFFSET 0 -3.206590 -0.000000
CHANNELS 3 Zrotation Xrotation Yrotation
								JOINT rhand
								{
									OFFSET 0 0 0
CHANNELS 3 Zrotation Xrotation Yrotation
									JOINT RFingers
									{
OFFSET 0 -0.691880 0.000000
CHANNELS 3 Zrotation Xrotation Yrotation
										End Site
										{
OFFSET 0 -0.557810 0.000000
										}
									}
								}
								JOINT RThumb
								{
OFFSET 0 0.000000 0.000000
CHANNELS 3 Zrotation Xrotation Yrotation
									End Site
									{
OFFSET 0 -0.566330 0.566330
									}
								}
							}
						}
					}
				}
			}
		}
	}
}
MOTION
Frames: 4
Frame Time: 0.008333333333333333
0.681600 17.398700 8.792000 -8.471300 -0.681900 9.458300 0.000000 0.000000 0.000000 -16.460400 -40.306200 20.871600 0.049000 -1.428000 -3.927400 -5.582700 41.683700 -38.262600 0.203200 2.902600 8.007600 0.000000 0.000000 0.000000 26.469300 25.928200 5.657600 -0.004800 -0.448000 1.231000 1.355100 -23.282700 -21.576500 -0.023100 -0.981500 2.697800 7.135500 0.945600 0.349400 0.837400 1.718200 -8.495100 -3.232100 0.342800 -9.032800 -3.184400 -8.808800 -6.885700 7.890500 -13.175900 17.349700 1.909100 -5.943900 7.189700 0.000000 -0.000000 0.000000 -0.313000 7.084800 18.076900 12.414800 -20.423800 2.244900 16.503100 21.549600 9.497300 0.000000 0.000000 0.000000 -7.125000 0.000000 0.000000 -7.468600 20.123000 -4.481000 0.000000 -0.000000 0.000000 4.495700 11.203300 -15.551400 -15.740100 -25.167000 -3.534700 5.670100 37.554700 30.022500 0.000000 0.000000 0.000000 7.125000 0.000000 -0.000000 38.987200 55.477200 -11.262900
0.684741 17.412099 8.792164 -8.290758 -0.947842 9.738834 0.000000 0.000000 0.000000 -16.711631 -40.699566 20.828486 0.047460 -1.405505 -3.865428 -5.614921 41.974598 -38.947702 0.222665 3.037131 8.382178 0.000000 0.000000 0.000000 25.711854 24.895589 4.279692 -0.010443 -0.651482 1.790350 1.172976 -21.949787 -20.595878 -0.013767 -0.755285 2.075686 6.504693 0.300184 -0.039545 2.038127 0.866204 -8.448672 -1.537540 0.030267 -8.855339 -6.886013 -8.582988 -7.325212 8.572628 -12.519621 17.819333 2.742795 -5.782657 7.662156 0.000000 0.000000 0.000000 -2.982899 7.330484 19.505219 12.742608 -20.908764 2.360789 16.386267 20.698397 8.981425 0.000000 0.000000 0.000000 -7.125000 0.000000 0.000000 -7.561034 20.661184 -4.444707 0.000000 0.000000 0.000000 1.562699 10.840171 -13.817580 -15.094599 -24.276982 -3.265158 5.486996 38.162584 30.596987 0.000000 0.000000 0.000000 7.125000 0.000000 0.000000 39.325229 55.968136 -11.880939
0.681567 17.423800 8.798520 -8.146601 -1.362429 10.110596 0.000000 0.000000 0.000000 -16.920428 -41.219014 20.831207 0.046604 -1.392868 -3.830585 -5.598725 42.342442 -40.079968 0.275343 3.375447 9.325718 0.000000 0.000000 0.000000 25.098837 24.534873 3.076516 -0.019002 -0.889362 2.444373 1.025617 -20.961787 -20.147110 -0.016650 -0.832512 2.287935 5.942044 0.099064 -0.677025 2.455781 0.536743 -8.367418 -0.758064 -0.060140 -8.414031 -8.466643 -8.659443 -7.595743 9.020586 -12.495720 18.033831 3.123492 -5.823648 7.914712 0.000000 0.000000 0.000000 -3.938561 7.319259 18.835371 13.004979 -21.294528 2.455084 16.382846 19.181606 8.048309 0.000000 0.000000 0.000000 -7.125000 0.000000 0.000000 -7.583031 21.623495 -4.291910 0.000000 0.000000 0.000000 0.335312 10.411237 -12.672425 -14.666749 -23.679790 -3.090840 4.924923 38.388151 31.503088 0.000000 0.000000 0.000000 7.125000 0.000000 0.000000 39.634069 56.796160 -12.835041
0.686661 17.423089 8.794975 -8.109006 -1.477569 10.118205 0.000000 0.000000 0.000000 -17.058232 -41.224756 20.917253 0.047225 -1.402778 -3.857828 -5.606213 42.425107 -40.274786 0.276232 3.380393 9.339620 0.000000 0.000000 0.000000 25.032103 24.593025 3.161360 -0.016675 -0.833264 2.290039 1.032180 -20.972983 -20.087279 -0.022099 -0.959865 2.638361 5.982550 0.246053 -0.476933 2.227474 0.751996 -8.631321 -1.033645 0.019552 -8.809373 -8.967845 -9.046257 -6.822575 9.597490 -13.146055 18.035545 3.346841 -6.145489 7.914970 0.000000 0.000000 0.000000 -3.785202 7.791272 17.927402 13.144241 -21.498104 2.505892 16.145242 18.774181 8.036231 0.000000 0.000000 0.000000 -7.125000 0.000000 0.000000 -7.755303 21.647007 -4.386989 0.000000 0.000000 0.000000 0.535491 10.913738 -13.056792 -14.819726 -23.894340 -3.152597 5.153399 38.064130 31.152991 0.000000 0.000000 0.000000 7.125000 0.000000 0.000000 39.521236 56.473881 -12.466016
